<svg width="20" height="20" viewBox="0 0 20 20" fill="none" xmlns="http://www.w3.org/2000/svg">
<g id="cib:epic-games" clip-path="url(#clip0_49_7529)">
<path id="Vector" d="M2.94941 0C1.80379 0 1.38379 0.423125 1.38379 1.56563V15.3675C1.38379 15.4981 1.39066 15.6181 1.40066 15.7294C1.43004 15.98 1.43004 16.2244 1.66379 16.4975C1.68629 16.53 1.92129 16.7025 1.92129 16.7025C2.04816 16.7644 2.13566 16.81 2.27879 16.8681L9.22566 19.7781C9.58379 19.9412 9.73754 20.01 9.99754 20H10.0007C10.2638 20.01 10.4175 19.9419 10.7757 19.7781L17.7188 16.8681C17.8657 16.81 17.9494 16.7638 18.0794 16.7025C18.0794 16.7025 18.3144 16.5231 18.3369 16.4975C18.5713 16.2244 18.5713 15.98 18.6 15.7294C18.61 15.6187 18.6169 15.4987 18.6169 15.3713V1.56625C18.6169 0.42375 18.1938 0.000625 17.0513 0.000625L2.94941 0ZM14.0794 2.59063H14.645C15.5894 2.59063 16.0519 3.05 16.0519 4.0075V5.57312H14.9063V4.06875C14.9063 3.76313 14.7663 3.62313 14.4694 3.62313H14.2744C13.9688 3.62313 13.8288 3.76313 13.8288 4.06875V8.91187C13.8288 9.2175 13.9688 9.3575 14.2744 9.3575H14.4925C14.785 9.3575 14.925 9.2175 14.925 8.91187V7.18H16.0707V8.9675C16.0707 9.92062 15.6025 10.39 14.655 10.39H14.0794C13.1288 10.39 12.6625 9.9175 12.6625 8.9675V4.01562C12.6625 3.0625 13.1282 2.59063 14.0794 2.59063ZM3.92254 2.65687H6.51691V3.72125H5.08754V5.88875H6.46504V6.95063H5.08754V9.26125H6.53691V10.3263H3.92254V2.65687ZM7.10254 2.65687H8.93254C9.87941 2.65687 10.3482 3.12875 10.3482 4.08187V6.12C10.3482 7.07312 9.87879 7.5425 8.93254 7.5425H8.27191V10.3256H7.10254V2.65687ZM10.8757 2.65687H12.0407V10.3263H10.8757V2.65687ZM8.26816 3.68813V6.51312H8.75004C9.04316 6.51312 9.18316 6.37063 9.18316 6.06375V4.13688C9.18316 3.83125 9.04316 3.6875 8.75004 3.6875L8.26816 3.68813ZM5.05504 12.1481H5.22754L5.26691 12.155H5.32941L5.36191 12.165H5.39441L5.42379 12.1744L5.45629 12.1812L5.48191 12.1881L5.54004 12.2013L5.57316 12.2106L5.59566 12.2175L5.62129 12.2275L5.65379 12.2375L5.67629 12.2469L5.70941 12.26L5.73879 12.2731L5.76441 12.2888L5.79379 12.3019L5.81629 12.3175L5.84941 12.3344L5.87504 12.35L5.90066 12.3631L5.92629 12.3825L5.95316 12.3994L5.97566 12.4188L6.05379 12.4781L6.03379 12.5037L6.01129 12.5262L5.99129 12.5494L5.96879 12.575L5.95316 12.5975L5.93316 12.6206L5.91066 12.6431L5.89066 12.6688L5.87504 12.6912L5.85191 12.7181L5.83254 12.7406L5.81004 12.7663L5.79004 12.7894L5.77441 12.815L5.75129 12.8375L5.73191 12.8644L5.70941 12.8869L5.68941 12.9094L5.66691 12.8937L5.64129 12.8706L5.61441 12.855L5.56629 12.8225L5.53691 12.8056L5.51004 12.79L5.48066 12.7731L5.45816 12.76L5.43254 12.7475L5.38004 12.7275L5.34754 12.7219L5.32191 12.715L5.29254 12.7081L5.25941 12.7013L5.22691 12.6981H5.19441L5.15629 12.6912H5.09379L5.06129 12.6944H5.02879L4.99629 12.7044L4.97066 12.7112L4.94129 12.7213L4.91191 12.7269L4.88504 12.74L4.85254 12.7531L4.80754 12.7856L4.78066 12.8013L4.75816 12.8212L4.73566 12.8369L4.71254 12.8569L4.69691 12.8794L4.67004 12.9019L4.63754 12.9475L4.62191 12.9731L4.60879 13.0025L4.59316 13.0256L4.57629 13.055L4.56629 13.0844L4.55379 13.11L4.54379 13.1425L4.54066 13.175L4.53129 13.205L4.52441 13.2375V13.27L4.52129 13.3025V13.3775L4.52441 13.41V13.4356L4.52754 13.4681L4.53316 13.4975L4.54316 13.5231L4.54629 13.5563L4.55629 13.5819L4.56566 13.6044L4.57879 13.6369L4.59566 13.6694L4.60816 13.6925L4.64066 13.7444L4.66066 13.77L4.67629 13.7931L4.70316 13.8125L4.71879 13.835L4.74129 13.855L4.79379 13.8944L4.81629 13.9069L4.84191 13.9237L4.87191 13.9369L4.90441 13.9494L4.92691 13.9625L4.99191 13.9819L5.02129 13.985L5.05379 13.995L5.08629 13.9981H5.22629L5.26566 13.995H5.29504L5.32816 13.9819L5.36066 13.9787L5.39316 13.9694L5.41879 13.9625L5.44816 13.9494L5.47379 13.9369L5.50316 13.9237L5.52316 13.9106L5.54879 13.895V13.605H5.08941V13.14H6.12754V14.1819L6.10504 14.1975L6.08254 14.2169L6.05941 14.2338L6.03379 14.2531L6.00816 14.2663L5.98566 14.2863L5.93316 14.3188L5.90066 14.3344L5.84879 14.3669L5.81566 14.38L5.79004 14.3925L5.76066 14.4056L5.69566 14.4312L5.67004 14.4444L5.61066 14.4637L5.58129 14.4706L5.55191 14.4806L5.51941 14.4906L5.49379 14.4963L5.39629 14.5162L5.36629 14.5194L5.30129 14.5263L5.26566 14.5294L5.23316 14.5319L5.19754 14.535H5.03504L5.00254 14.5294H4.97004L4.93754 14.5225H4.90816L4.87566 14.5125L4.78066 14.4931L4.75504 14.4831L4.72566 14.48L4.69316 14.4669L4.63379 14.4475L4.57566 14.4219L4.54316 14.4088L4.52066 14.3956L4.48816 14.3831L4.46504 14.3631L4.43254 14.3506L4.41316 14.3337L4.38754 14.3181L4.33504 14.2788L4.30941 14.2619L4.28941 14.2425L4.26379 14.2225L4.22129 14.1806L4.19879 14.1606L4.17941 14.1381L4.15629 14.115L4.14066 14.0894L4.12066 14.07L4.10504 14.0431L4.08504 14.0175L4.06941 13.995L4.05254 13.9694L4.03691 13.9394L4.02379 13.9137L4.01066 13.8844L3.99816 13.8587L3.97254 13.7994L3.96254 13.7769L3.94941 13.7475L3.94254 13.7181L3.93691 13.6925L3.93004 13.66L3.92004 13.63L3.91316 13.5975L3.91004 13.5719L3.90441 13.5394L3.89754 13.4812L3.89066 13.4163V13.2438L3.89754 13.2106V13.1781L3.90754 13.1456V13.1131L3.91691 13.0837L3.92691 13.0513L3.94004 12.9931L3.94941 12.9606L3.95941 12.9313L3.99879 12.8431L4.01129 12.8175L4.02441 12.7881L4.04129 12.7581L4.05379 12.7325L4.07066 12.71L4.10316 12.6575L4.12254 12.6319L4.14254 12.6094L4.15816 12.5838L4.20066 12.5413L4.22004 12.5181L4.24316 12.4956L4.26254 12.4731L4.28941 12.4531L4.33441 12.4137L4.36004 12.3944L4.38691 12.3775L4.40941 12.3581L4.43504 12.3413L4.46191 12.3287L4.49129 12.3119L4.52379 12.2962L4.54629 12.2794L4.57879 12.2669L4.60816 12.2538L4.63754 12.2381L4.66441 12.2312L4.69691 12.2213L4.72254 12.2081L4.75191 12.2025L4.78129 12.1925L4.81379 12.1856L4.84066 12.1756L4.87316 12.1687H4.90566L4.93504 12.1594H4.96754L5.00004 12.1525H5.02941L5.05504 12.1481ZM15.0457 12.155H15.2182L15.2575 12.1619H15.3194L15.3519 12.1713H15.3875L15.42 12.1812L15.4782 12.1944L15.5107 12.2013L15.54 12.2069L15.5732 12.2169L15.6025 12.2269L15.6282 12.2337L15.6575 12.2431L15.69 12.2531L15.7157 12.2662L15.7482 12.2787L15.7782 12.2919L15.8075 12.3088L15.83 12.3213L15.8594 12.3381L15.8888 12.3506L15.9157 12.3675L15.945 12.3869L15.9675 12.4038L16.02 12.4431L16.0457 12.4587L16.0257 12.4844L16.01 12.5112L15.9907 12.5338L15.9707 12.5594L15.955 12.5887L15.9382 12.6156L15.9188 12.6381L15.8988 12.6637L15.8832 12.6906L15.8632 12.7163L15.8475 12.7388L15.8275 12.7644L15.8119 12.7944L15.7919 12.82L15.7725 12.8425L15.7525 12.8681L15.7369 12.895L15.7113 12.875L15.6813 12.8594L15.6588 12.8425L15.6332 12.8269L15.6038 12.8138L15.5769 12.7969L15.5475 12.7844L15.525 12.7712L15.4925 12.7587L15.4694 12.7456L15.4438 12.7356L15.3857 12.7163L15.3207 12.6962L15.2232 12.6769L15.1907 12.6737L15.1313 12.6669H15.0632L15.0275 12.6737L14.995 12.6806L14.9657 12.6875L14.94 12.7L14.9169 12.7131L14.8913 12.7356L14.8719 12.765L14.8588 12.795V12.8725L14.8757 12.9081L14.8882 12.9281L14.9082 12.9475L14.9407 12.9644L14.9663 12.98L14.9957 12.9931L15.0282 13.0056L15.0707 13.0156L15.0932 13.0256L15.12 13.0325L15.1525 13.0394L15.1782 13.0487L15.2075 13.0556L15.2432 13.0656L15.2757 13.0756L15.3113 13.085L15.3469 13.0919L15.3763 13.1019L15.4119 13.1112L15.4444 13.1181L15.4738 13.125L15.5719 13.1544L15.5975 13.1644L15.63 13.1744L15.6594 13.1869L15.6919 13.2037L15.7569 13.2294L15.7863 13.2463L15.8388 13.2788L15.8869 13.3144L15.9169 13.3337L15.9394 13.3563L15.9619 13.3831L15.985 13.4056L16.0007 13.4281L16.0238 13.4606L16.0394 13.4837L16.0525 13.5162L16.065 13.5356L16.075 13.5681L16.085 13.595L16.0919 13.6244L16.1044 13.6894L16.1075 13.7219L16.1107 13.7513V13.8294L16.1075 13.865L16.1007 13.93L16.0938 13.9625L16.0844 13.9919L16.0775 14.0244L16.0675 14.0569L16.0582 14.0863L16.045 14.1094L16.0319 14.1388L16.0163 14.1644L15.9963 14.1875L15.9638 14.2394L15.9244 14.285L15.9019 14.3006L15.8763 14.3237L15.8563 14.3431L15.8307 14.3625L15.805 14.3756L15.7794 14.3956L15.7494 14.4113L15.6913 14.4406L15.6588 14.4537L15.6294 14.4662L15.5969 14.4763L15.5675 14.4862L15.5407 14.4931L15.4757 14.5056L15.4532 14.5125L15.4207 14.5194H15.3882L15.3588 14.5263H15.3263L15.2938 14.5331H15.0619L14.9644 14.5231L14.9319 14.5162L14.9025 14.5131L14.8375 14.5006L14.8019 14.4938L14.7725 14.4869L14.74 14.4769L14.7069 14.47L14.6775 14.4606L14.645 14.4506L14.6125 14.4375L14.5869 14.4281L14.5544 14.4181L14.5219 14.405L14.4988 14.3925L14.4663 14.3825L14.4407 14.3656L14.4082 14.3531L14.3825 14.3363L14.3594 14.3206L14.3269 14.3038L14.3044 14.2912L14.2788 14.2712L14.2532 14.2556L14.2263 14.2356L14.2038 14.2163L14.1782 14.1963L14.155 14.1806L14.1294 14.1575L14.1494 14.1319L14.1719 14.1094L14.1913 14.0863L14.2144 14.0606L14.23 14.0381L14.25 14.0125L14.2725 13.9894L14.2919 13.9669L14.315 13.9412L14.3307 13.9181L14.3538 13.8956L14.3732 13.87L14.3932 13.8469L14.4157 13.8212L14.4313 13.7987L14.4544 13.7756L14.4769 13.75L14.4994 13.77L14.5294 13.7894L14.5519 13.8088L14.5844 13.8256L14.6069 13.8425L14.6363 13.8619L14.6632 13.8787L14.6925 13.8912L14.715 13.9081L14.7444 13.9175L14.7769 13.9306L14.8038 13.9437L14.8332 13.9531L14.8588 13.9663L14.8913 13.9762L14.9207 13.9856L14.9532 13.9956L14.9857 13.9988L15.0157 14.0087L15.0482 14.0119H15.0838L15.1132 14.0212H15.2888L15.3182 14.0156L15.3507 14.0087L15.3732 14.0056L15.4 13.9956L15.4225 13.9831L15.4519 13.9631L15.4688 13.9406L15.4813 13.915L15.4913 13.885V13.81L15.4782 13.7806L15.4625 13.755L15.4425 13.7356L15.4132 13.7156L15.3907 13.7063L15.3613 13.6931L15.3288 13.68L15.2932 13.6644L15.27 13.6575L15.2444 13.6506L15.2119 13.6406L15.1894 13.635L15.1569 13.625L15.1244 13.6219L15.0913 13.6088L15.0588 13.6056L15.0232 13.5962L14.9938 13.5894L14.9613 13.5794L14.9288 13.5725L14.8963 13.5631L14.8669 13.5531L14.8344 13.5462L14.8088 13.5363L14.7494 13.5169L14.7169 13.5038L14.6844 13.4944L14.6194 13.4675L14.59 13.4519L14.5575 13.435L14.535 13.4194L14.505 13.4025L14.4825 13.3869L14.4532 13.37L14.4107 13.3275L14.3882 13.3081L14.3488 13.2625L14.3319 13.24L14.3194 13.2175L14.2994 13.1875L14.29 13.165L14.26 13.0869L14.2544 13.0544L14.2475 13.025V12.9956L14.2407 12.9631V12.83L14.2475 12.765L14.2544 12.7381L14.26 12.7087L14.27 12.6831L14.2769 12.6506L14.29 12.6281L14.3025 12.595L14.3157 12.5694L14.3282 12.5369L14.345 12.5144L14.3675 12.4888L14.3844 12.4619L14.41 12.4394L14.4294 12.4169L14.4494 12.39L14.4788 12.3675L14.4988 12.3506L14.5244 12.3312L14.5763 12.2987L14.6057 12.2819L14.665 12.2525L14.6907 12.2431L14.72 12.2331L14.7525 12.22L14.785 12.2106L14.8082 12.2037L14.8375 12.1969L14.8632 12.19L14.8925 12.1831L14.925 12.1763L14.99 12.1706L15.02 12.1675L15.0457 12.155ZM7.34691 12.1775H7.93629L7.96316 12.2369L7.97566 12.2625L7.98566 12.295L7.99879 12.3244L8.00816 12.35L8.02504 12.3794L8.04441 12.4388L8.06129 12.4681L8.08691 12.5262L8.09379 12.5519L8.14566 12.6694L8.15566 12.6988L8.16879 12.7256L8.18441 12.755L8.19129 12.7844L8.20816 12.8169L8.21379 12.8463L8.24379 12.9044L8.25629 12.9275L8.26941 12.96L8.27941 12.9925L8.28879 13.015L8.30566 13.0475L8.31566 13.0744L8.32816 13.1069L8.33816 13.1294L8.35129 13.1619L8.38066 13.22L8.39004 13.2494L8.39691 13.2794L8.41004 13.3088L8.42566 13.3344L8.43879 13.3669L8.45191 13.3962L8.46129 13.4219L8.48816 13.4812L8.49754 13.5106L8.51066 13.54L8.52066 13.5694L8.53316 13.595L8.55004 13.625L8.56254 13.6544L8.57566 13.68L8.58254 13.7125L8.60816 13.7706L8.62129 13.7975L8.63066 13.8269L8.65754 13.885L8.67316 13.9175L8.68004 13.9431L8.69691 13.9762L8.70254 13.9988L8.71566 14.0312L8.73254 14.0638L8.74504 14.0863L8.75504 14.1187L8.76816 14.1456L8.77754 14.1781L8.79441 14.2006L8.81379 14.2656L8.82691 14.2887L8.83941 14.3212L8.85629 14.3469L8.86941 14.3794L8.87504 14.4088L8.88504 14.4344L8.89816 14.4637L8.91379 14.4906H8.26316L8.24754 14.4637L8.23754 14.4344L8.22441 14.405L8.21191 14.3725L8.20504 14.3469L8.17816 14.2887L8.16879 14.2619L8.14316 14.2037L8.13316 14.1781L8.12004 14.1456L8.10066 14.0863L8.08754 14.0606H7.18254L7.17004 14.09L7.16004 14.1169L7.14691 14.1494L7.13441 14.1788L7.12754 14.2044L7.11441 14.2369L7.10191 14.2625L7.09191 14.2919L7.07879 14.3188L7.06629 14.3512L7.05629 14.3737L7.04316 14.4062L7.03379 14.4387L7.02066 14.4619L7.01066 14.4944H6.36629L6.37566 14.4644L6.40254 14.4062L6.41191 14.3737L6.42191 14.3481L6.43879 14.3188L6.45129 14.2894L6.46441 14.2625L6.47129 14.2331L6.48379 14.2006L6.50066 14.175L6.51316 14.1456L6.53316 14.0863L6.56254 14.0281L6.57254 13.9988L6.58504 13.9731L6.59504 13.9431L6.63441 13.8556L6.64754 13.8231L6.65691 13.7975L6.66691 13.7681L6.68379 13.7413L6.69629 13.7087L6.70629 13.6794L6.71629 13.6538L6.72879 13.6213L6.74566 13.5981L6.75566 13.5656L6.76816 13.54L6.77816 13.5106L6.79129 13.4781L6.80691 13.4525L6.81691 13.42L6.82941 13.3969L6.83941 13.3644L6.85254 13.3319L6.86504 13.3094L6.87816 13.2769L6.88816 13.25L6.90066 13.2175L6.91066 13.195L6.92754 13.1625L6.94004 13.13L6.95316 13.1044L6.96004 13.075L6.97254 13.045L6.98941 13.0156L7.00191 12.99L7.00879 12.9575L7.02191 12.9281L7.03504 12.9012L7.06066 12.8431L7.07004 12.8175L7.09691 12.7525L7.10941 12.7294L7.12254 12.6969L7.13254 12.6713L7.14191 12.6388L7.15504 12.6094L7.17191 12.5838L7.18441 12.5513L7.19441 12.5281L7.20441 12.4956L7.21691 12.47L7.23379 12.4406L7.24379 12.4081L7.25316 12.3812L7.26629 12.3487L7.27879 12.3263L7.29566 12.2937L7.30566 12.2612L7.31504 12.2388L7.32816 12.2063L7.34691 12.1775ZM9.17691 12.1944H9.82129L9.84129 12.22L9.87379 12.2725L9.88941 12.3019L9.90629 12.3244L9.92191 12.3538L9.93879 12.3794L9.95441 12.4094L9.97129 12.435L9.98691 12.4575L10.0038 12.4869L10.0194 12.5138L10.0425 12.5394L10.0519 12.565L10.0719 12.5944L10.0875 12.6213L10.1075 12.6437L10.1207 12.6731L10.1363 12.6988L10.1563 12.7256L10.1657 12.7513L10.1888 12.7806L10.2369 12.8587L10.25 12.8844L10.2694 12.91L10.2863 12.9356L10.3019 12.9656L10.3513 13.0431L10.3669 13.0731L10.3838 13.0988L10.4032 13.0731L10.4163 13.04L10.4357 13.0175L10.4525 12.9881L10.4682 12.9656L10.4813 12.9331L10.5038 12.91L10.5207 12.8806L10.5338 12.8581L10.5494 12.8313L10.5694 12.8019L10.585 12.7794L10.6019 12.7469L10.6175 12.7244L10.6375 12.6944L10.65 12.6719L10.6669 12.6394L10.6825 12.62L10.6994 12.5931L10.7188 12.5606L10.7357 12.5381L10.7482 12.5087L10.7682 12.4856L10.7838 12.4531L10.8007 12.4337L10.82 12.4081L10.8369 12.3756L10.8525 12.3525L10.8694 12.3231L10.885 12.3006L10.9019 12.2681L10.9213 12.245L10.9344 12.2156L10.9513 12.1931H11.6057V14.5175H10.9932V13.15L10.9775 13.1731L10.9575 13.2056L10.9419 13.225L10.9219 13.2506L10.9094 13.2831L10.8894 13.3063L10.8738 13.3288L10.8538 13.3612L10.8213 13.4069L10.8019 13.4325L10.785 13.465L10.7657 13.4881L10.7488 13.5106L10.7363 13.5431L10.7163 13.5656L10.7007 13.5888L10.6807 13.6213L10.665 13.6438L10.645 13.6694L10.6294 13.6987L10.6163 13.7219L10.5969 13.7475L10.58 13.7769L10.5607 13.7994L10.5407 13.8263L10.5282 13.8519L10.5113 13.8812L10.4919 13.9044L10.4719 13.93L10.4594 13.9625L10.4363 13.9819L10.4238 14.0075L10.4038 14.0406L10.3882 14.0631H10.375L10.3557 14.0338L10.3388 14.0069L10.3232 13.9775L10.3063 13.955L10.2869 13.9256L10.27 13.9L10.2507 13.8731L10.2338 13.8475L10.2182 13.8181L10.2013 13.7956L10.1788 13.7656L10.1657 13.74L10.1463 13.7106L10.1294 13.6881L10.1138 13.6588L10.0938 13.6319L10.0782 13.5994L10.0582 13.5769L10.0425 13.5475L10.0257 13.5206L10.01 13.4913L9.99004 13.4688L9.97441 13.4394L9.95441 13.4137L9.94191 13.3869L9.92191 13.3612L9.90629 13.3319L9.88629 13.3094L9.87066 13.2794L9.85066 13.2537L9.83816 13.2244L9.81504 13.2019L9.80254 13.1719L9.78254 13.1462V14.5169H9.18066V12.215L9.17691 12.1944ZM12.0669 12.1944H13.9V12.7188H12.6757V13.0931H13.7757V13.5881H12.6757V13.985H13.9157V14.5125H12.07V12.2144L12.0669 12.1944ZM7.63316 12.9069L7.62316 12.9362L7.61379 12.9631L7.60066 12.9956L7.58754 13.025L7.57816 13.0544L7.55129 13.1125L7.53879 13.145L7.52879 13.1719L7.51879 13.2044L7.50629 13.2269L7.49629 13.2594L7.48316 13.2919L7.47066 13.315L7.46066 13.3475L7.44816 13.3731L7.43816 13.4056L7.42129 13.435L7.41441 13.4606L7.40191 13.4931L7.38879 13.5231L7.37879 13.5487L7.36629 13.5812H7.90316L7.89066 13.5487L7.88066 13.5194L7.85504 13.46L7.84504 13.4306L7.83191 13.405L7.82254 13.3725L7.80941 13.3431L7.79941 13.3138L7.78691 13.2869L7.77691 13.2575L7.76379 13.225L7.75441 13.1994L7.72754 13.1412L7.72191 13.1112L7.70879 13.0819L7.69566 13.0494L7.68629 13.0269L7.65941 12.9619L7.65004 12.9325L7.63316 12.9069ZM6.67691 17.2594H13.3525L9.94504 18.3825L6.67691 17.2594Z" fill="white"/>
</g>
<defs>
<clipPath id="clip0_49_7529">
<rect width="20" height="20" fill="white"/>
</clipPath>
</defs>
</svg>
