<svg width="18" height="22" viewBox="0 0 18 22" fill="none" xmlns="http://www.w3.org/2000/svg">
<path id="Vector" d="M16.5492 10.005C16.0942 8.98087 15.4328 8.0617 14.6063 7.30495L13.9242 6.67917C13.9011 6.65851 13.8732 6.64384 13.843 6.63646C13.8129 6.62909 13.7814 6.62922 13.7513 6.63686C13.7212 6.64449 13.6935 6.6594 13.6705 6.68026C13.6475 6.70112 13.63 6.72731 13.6195 6.75652L13.3148 7.63073C13.125 8.17917 12.7758 8.73933 12.2812 9.29011C12.2484 9.32526 12.2109 9.33464 12.1852 9.33698C12.1594 9.33933 12.1195 9.33464 12.0844 9.30183C12.0516 9.2737 12.0352 9.23151 12.0375 9.18933C12.1242 7.77839 11.7023 6.18698 10.7789 4.45495C10.0148 3.01589 8.95312 1.89323 7.62656 1.11042L6.65859 0.54089C6.53203 0.46589 6.37031 0.564328 6.37734 0.711984L6.42891 1.83698C6.46406 2.60573 6.375 3.28542 6.16406 3.85026C5.90625 4.54167 5.53594 5.18386 5.0625 5.76042C4.73302 6.16112 4.35959 6.52354 3.94922 6.84089C2.96087 7.60065 2.15722 8.57417 1.59844 9.68855C1.04103 10.8126 0.75068 12.0502 0.75 13.305C0.75 14.4112 0.967969 15.4823 1.39922 16.4925C1.81562 17.465 2.41654 18.3477 3.16875 19.0917C3.92813 19.8417 4.80938 20.4323 5.79141 20.8424C6.80859 21.269 7.88672 21.4846 9 21.4846C10.1133 21.4846 11.1914 21.269 12.2086 20.8448C13.1882 20.437 14.079 19.8424 14.8312 19.094C15.5906 18.344 16.1859 17.4675 16.6008 16.4948C17.0314 15.4874 17.2523 14.4029 17.25 13.3073C17.25 12.1635 17.0156 11.0526 16.5492 10.005ZM13.7109 17.9573C12.4523 19.2042 10.7812 19.8885 9 19.8885C7.21875 19.8885 5.54766 19.2042 4.28906 17.9573C3.03516 16.7128 2.34375 15.0628 2.34375 13.3073C2.34375 12.2878 2.57344 11.3104 3.02578 10.401C3.46641 9.51276 4.12266 8.71823 4.91953 8.10651C5.42775 7.71791 5.8887 7.27111 6.29297 6.77526C6.87891 6.06042 7.33828 5.26355 7.65703 4.40808C7.78778 4.0552 7.88279 3.69009 7.94062 3.31823C8.50547 3.83855 8.97891 4.46667 9.375 5.20261C10.1578 6.6698 10.5187 7.97526 10.4484 9.0862C10.4316 9.34785 10.4744 9.6099 10.5734 9.85266C10.6725 10.0954 10.8253 10.3126 11.0203 10.4878C11.1893 10.6405 11.387 10.758 11.6019 10.8337C11.8167 10.9093 12.0445 10.9415 12.2719 10.9284C12.7336 10.905 13.1578 10.701 13.4672 10.3565C13.7789 10.0073 14.0484 9.65105 14.2734 9.28776C14.6016 9.7073 14.8758 10.1643 15.0938 10.6565C15.4664 11.4956 15.6562 12.3885 15.6562 13.3073C15.6562 15.0628 14.9648 16.7151 13.7109 17.9573Z" fill="#393939"/>
</svg>
