<svg width="20" height="20" viewBox="0 0 20 20" fill="none" xmlns="http://www.w3.org/2000/svg">
<g id="simple-icons:steam" clip-path="url(#clip0_49_7523)">
<path id="Vector" d="M9.98272 0C4.73189 0 0.426055 4.05 0.0185547 9.1975L5.37856 11.4125C5.84803 11.0919 6.40338 10.9205 6.97189 10.9208C7.02439 10.9208 7.07605 10.9242 7.12855 10.9258L9.51272 7.47417V7.425C9.5136 6.4254 9.91108 5.467 10.6179 4.76018C11.3247 4.05336 12.2831 3.65588 13.2827 3.655C15.3611 3.655 17.0527 5.3475 17.0527 7.4275C17.0527 9.5075 15.3611 11.1983 13.2827 11.1983H13.1952L9.79856 13.6242C9.79856 13.6675 9.80189 13.7117 9.80189 13.7567C9.80233 14.128 9.72959 14.4958 9.58784 14.839C9.44608 15.1822 9.23809 15.4942 8.97575 15.757C8.7134 16.0198 8.40184 16.2283 8.05886 16.3707C7.71589 16.5131 7.34823 16.5864 6.97689 16.5867C6.32354 16.5845 5.69089 16.3573 5.18535 15.9434C4.67981 15.5296 4.33222 14.9542 4.20106 14.3142L0.363555 12.725C1.55189 16.9225 5.40522 20 9.98272 20C15.5052 20 19.9819 15.5225 19.9819 10C19.9819 4.4775 15.5044 0 9.98272 0ZM6.28356 15.175L5.05606 14.6667C5.27439 15.1192 5.65106 15.4992 6.15106 15.7083C6.53887 15.869 6.96558 15.9113 7.37738 15.8298C7.78919 15.7484 8.16765 15.5468 8.46506 15.2505C8.76248 14.9543 8.96552 14.5766 9.0486 14.1651C9.13167 13.7536 9.09107 13.3268 8.93189 12.9383C8.72169 12.4278 8.32085 12.0193 7.81443 11.7995C7.30801 11.5797 6.73586 11.5658 6.21939 11.7608L7.48855 12.2858C7.87168 12.4455 8.17568 12.7509 8.33368 13.1347C8.49168 13.5185 8.49074 13.9494 8.33105 14.3325C8.17137 14.7156 7.86603 15.0196 7.48221 15.1776C7.09838 15.3356 6.66668 15.3347 6.28356 15.175ZM15.7961 7.4225C15.7952 6.75641 15.5302 6.11786 15.0592 5.64687C14.5882 5.17587 13.9496 4.91088 13.2836 4.91C12.7866 4.91 12.3009 5.05736 11.8877 5.33343C11.4745 5.60951 11.1525 6.00191 10.9623 6.46101C10.7721 6.92011 10.7224 7.42529 10.8193 7.91266C10.9163 8.40004 11.1556 8.84773 11.5069 9.19911C11.8583 9.55048 12.306 9.78978 12.7934 9.88672C13.2808 9.98367 13.7859 9.93391 14.245 9.74375C14.7041 9.55358 15.0965 9.23155 15.3726 8.81837C15.6487 8.40519 15.7961 7.91943 15.7961 7.4225ZM11.4019 7.41833C11.4019 6.91763 11.6008 6.43743 11.9548 6.08337C12.3089 5.72932 12.7891 5.53042 13.2898 5.53042C13.7905 5.53042 14.2707 5.72932 14.6248 6.08337C14.9788 6.43743 15.1777 6.91763 15.1777 7.41833C15.1773 7.91894 14.9782 8.3989 14.6241 8.7528C14.27 9.10671 13.79 9.30561 13.2894 9.30583C13.0415 9.30594 12.796 9.2572 12.5669 9.16238C12.3379 9.06756 12.1298 8.92853 11.9545 8.75324C11.7792 8.57795 11.6402 8.36983 11.5453 8.14078C11.4505 7.91173 11.4018 7.66623 11.4019 7.41833Z" fill="white"/>
</g>
<defs>
<clipPath id="clip0_49_7523">
<rect width="20" height="20" fill="white"/>
</clipPath>
</defs>
</svg>
