<svg width="24" height="24" viewBox="0 0 24 24" fill="none" xmlns="http://www.w3.org/2000/svg">
<path d="M11.0736 2.633C11.3936 1.789 12.6046 1.789 12.9256 2.633L14.9956 8.367C15.1406 8.747 15.5096 9 15.9216 9H21.0086C21.9486 9 22.3586 10.17 21.6196 10.743L17.9996 14C17.8374 14.1247 17.7189 14.2975 17.6611 14.4937C17.6032 14.6898 17.609 14.8993 17.6776 15.092L18.9996 20.695C19.3216 21.595 18.2796 22.368 17.4916 21.814L12.5746 18.694C12.4062 18.5757 12.2054 18.5122 11.9996 18.5122C11.7938 18.5122 11.593 18.5757 11.4246 18.694L6.50759 21.814C5.72059 22.368 4.67759 21.594 4.99959 20.695L6.32159 15.092C6.39017 14.8993 6.39595 14.6898 6.3381 14.4937C6.28025 14.2975 6.16174 14.1247 5.99959 14L2.37959 10.743C1.63959 10.17 2.05159 9 2.98959 9H8.07659C8.27688 9.00067 8.47265 8.9405 8.63801 8.82747C8.80336 8.71444 8.93049 8.55387 9.00259 8.367L11.0726 2.633H11.0736Z" stroke="white" stroke-width="2.17" stroke-linecap="round" stroke-linejoin="round"/>
</svg>
